{"title":"The Host  (Sci-Fi Adventure 2013)  Saoirse Ronan, Max Irons &amp;amp","uid":9457224,"size":502056121,"categoryP":"video","categoryS":"movies","magnet":"?xt=urn:btih:356db408c329ef341fe2a43b555723be9b41dabf&amp;dn=The+Host++%28Sci-Fi+Adventure+2013%29++Saoirse+Ronan%2C+Max+Irons+%26amp&amp;tr=udp%3A%2F%2Ftracker.openbittorrent.com%3A80&amp;tr=udp%3A%2F%2Fopen.demonii.com%3A1337&amp;tr=udp%3A%2F%2Ftracker.coppersurfer.tk%3A6969&amp;tr=udp%3A%2F%2Fexodus.desync.com%3A6969","seeders":4,"leechers":0,"uploader":"BurtonW","files":1,"time":1389291795,"description":" &lt;a href=&quot;http://www.imdb.com/title/tt1517260/?ref_=fn_al_tt_1&quot; rel=&quot;nofollow&quot; target=&quot;_NEW&quot;&gt;http://www.imdb.com/title/tt1517260/?ref_=fn_al_tt_1&lt;/a&gt;\n\n\nA very good quality film.\n\n\nEnglish subtitles!\n\n\nStoryline:\n\nA race of aliens who are non corporeal go from planet to planet looking for hosts. They come to Earth and basically take over human bodies. Now it's believed that once they take over a body all memories of the previous inhabitant are gone. And there are some humans who have remain hidden from them and are basically a resistance movement. So an alien charged with locating them known as the Seeker captures one of them a girl named Melanie and puts one of them who is known as Wanderer in her body, in hopes of finding out where the humans are. But Melanie for some reason is still there and she convinces Wanderer not to say anything to Seeker. Wanderer feels empathy for the humans. When Seeker is disappointed at her lack of progress, she informs Wanderer that she'll be removed and placed in a new host and she will be placed in Melanie. Melanie knowing she can't convince her the way she convinced Wanderer convinces Wanderer to run away and they can meet with the humans.\n\n\nTechnical info:\n\n\nGeneral:\n\nComplete name:                  : The Host  (Sci-Fi Adventure 2013)  Saoirse Ronan, Max Irons &amp; Jake Abel.mp4\n\nFormat                         : MPEG-4\nFormat profile                 : Base Media / Version 2\nCodec ID                       : mp42\nFile size                      : 479 MiB\nDuration                       : 2h 5mn\nOverall bit rate mode          : Variable\nOverall bit rate               : 533 Kbps\nMovie name                     : The Host 2013 By MgB\nEncoded date                   : UTC 2014-01-09 06:04:34\nTagged date                    : UTC 2014-01-09 08:58:49\n\n\nVideo:\n\nID                             : 1\nFormat                         : AVC\nFormat/Info                    : Advanced Video Codec\nFormat profile                 : &lt;a class=&quot;__cf_email__&quot; href=&quot;/cdn-cgi/l/email-protection&quot; data-cfemail=&quot;fab79b9394bab6ced4ca&quot;&gt;[email&amp;#160;protected]&lt;/a&gt;&lt;script cf-hash='f9e31' type=&quot;text/javascript&quot;&gt;\n/* &lt;![CDATA[ */!function(){try{var t=&quot;currentScript&quot;in document?document.currentScript:function(){for(var t=document.getElementsByTagName(&quot;script&quot;),e=t.length;e--;)if(t[e].getAttribute(&quot;cf-hash&quot;))return t[e]}();if(t&amp;&amp;t.previousSibling){var e,r,n,i,c=t.previousSibling,a=c.getAttribute(&quot;data-cfemail&quot;);if(a){for(e=&quot;&quot;,r=parseInt(a.substr(0,2),16),n=2;a.length-n;n+=2)i=parseInt(a.substr(n,2),16)^r,e+=String.fromCharCode(i);e=document.createTextNode(e),c.parentNode.replaceChild(e,c)}}}catch(u){}}();/* ]]&gt; */&lt;/script&gt;\nFormat settings, CABAC         : Yes\nFormat settings, ReFrames      : 8 frames\nCodec ID                       : avc1\nCodec ID/Info                  : Advanced Video Coding\nDuration                       : 2h 5mn\nBit rate mode                  : Variable\nBit rate                       : 368 Kbps\nWidth                          : 720 pixels\nHeight                         : 304 pixels\nDisplay aspect ratio           : 2.35:1\nFrame rate mode                : Variable\nFrame rate                     : 23.976 fps\nMinimum frame rate             : 23.974 fps\nMaximum frame rate             : 90 000.000 fps\nColor space                    : YUV\nChroma subsampling             : 4:2:0\nBit depth                      : 8 bits\nScan type                      : Progressive\nBits/(Pixel*Frame)             : 0.070\nStream size                    : 330 MiB (69%)\nWriting library                : x264 core 130 r2273 b3065e6\nEncoding settings              : Deleted\nEncoded date                   : UTC 2014-01-09 06:04:34\nTagged date                    : UTC 2014-01-09 08:58:49\nColor primaries                : BT.709\nTransfer characteristics       : BT.709\nMatrix coefficients            : BT.709\n\nAudio:\n\nID                             : 2\nFormat                         : AAC\nFormat/Info                    : Advanced Audio Codec\nFormat profile                 : LC\nCodec ID                       : 40\nDuration                       : 2h 5mn\nBit rate mode                  : Variable\nBit rate                       : 160 Kbps\nMaximum bit rate               : 296 Kbps\nChannel(s)                     : 2 channels\nChannel positions              : Front: L R\nSampling rate                  : 48.0 KHz\nCompression mode               : Lossy\nDelay relative to video        : 83ms\nStream size                    : 144 MiB (30%)\nEncoded date                   : UTC 2014-01-09 06:04:34\nTagged date                    : UTC 2014-01-09 08:58:48\n\nText:\n\nID                             : 3\nFormat                         : Timed text\nMuxing mode                    : sbtl\nCodec ID                       : tx3g\nDuration                       : 1h 55mn\nBit rate mode                  : Variable\nBit rate                       : 53 bps\nDelay relative to video        : 83ms\nStream size                    : 44.6 KiB (0%)\nLanguage                       : English\nEncoded date                   : UTC 2014-01-09 06:04:34\nTagged date                    : UTC 2014-01-09 08:51:38\n\n","torrent":{"xt":"urn:btih:356db408c329ef341fe2a43b555723be9b41dabf","amp;dn":"The+Host++%28Sci-Fi+Adventure+2013%29++Saoirse+Ronan%2C+Max+Irons+%26amp","amp;tr":["udp%3A%2F%2Ftracker.openbittorrent.com%3A80","udp%3A%2F%2Fopen.demonii.com%3A1337","udp%3A%2F%2Ftracker.coppersurfer.tk%3A6969","udp%3A%2F%2Fexodus.desync.com%3A6969"],"infoHash":"356db408c329ef341fe2a43b555723be9b41dabf","infoHashBuffer":{"type":"Buffer","data":[53,109,180,8,195,41,239,52,31,226,164,59,85,87,35,190,155,65,218,191]},"announce":[],"urlList":[]}}